PathFileType	3	(X/Y/Z)	RCH0000005 BBF 05.c3d
DataRate	CameraRate	NumFrames	NumMarkers	Units	OrigDataRate	OrigDataStartFrame	OrigNumFrames
100.0	100.0	13	23	mm	100.0	99	453
Frame#	Time	T2			T10			MAN			LASI			RASI			LPSI			RPSI			LPAT			LKNE			LANK			LMED			LHEE			LTOE			RPAT			RKNE			RANK			RMED			RHEE			RTOE			LTHI			LTIB			RTHI			RTIB			
		X1	Y1	Z1	X2	Y2	Z2	X3	Y3	Z3	X4	Y4	Z4	X5	Y5	Z5	X6	Y6	Z6	X7	Y7	Z7	X8	Y8	Z8	X9	Y9	Z9	X10	Y10	Z10	X11	Y11	Z11	X12	Y12	Z12	X13	Y13	Z13	X14	Y14	Z14	X15	Y15	Z15	X16	Y16	Z16	X17	Y17	Z17	X18	Y18	Z18	X19	Y19	Z19	X20	Y20	Z20	X21	Y21	Z21	X22	Y22	Z22	X23	Y23	Z23	

99	0.980	-821.63127	-69.90545	1303.68428	-844.32242	-56.21949	1087.65641	-681.10478	-59.37687	1261.61753	-718.56340	25.89623	890.75097	-722.81864	-162.89533	903.66266	-861.35036	-22.74024	930.40336	-867.83999	-108.82447	933.58153	-575.78904	-20.72297	510.64247	-634.55848	44.37910	451.68205	-896.95275	43.81887	177.69372	-883.46596	-39.17278	165.87367	-955.79534	3.98234	190.59797	-849.08755	20.89850	140.78152	-663.10727	-119.69906	506.19228	-728.34512	-182.42786	435.02834	-859.32366	-166.38209	74.39525	-843.49745	-84.08088	74.49141	-916.10323	-132.14169	63.08608	-801.98574	-149.29215	66.04435	-669.11640	115.67130	605.89894	-761.54051	108.98284	339.10649	-747.48177	-259.95618	604.79652	-795.21168	-244.61101	294.81891	
100	0.990	-809.99563	-70.45489	1307.23318	-832.88749	-56.65081	1091.36392	-669.64509	-59.32557	1265.42073	-707.39379	25.81321	894.83034	-712.16261	-163.02361	906.69702	-850.04967	-22.45509	934.50592	-856.74045	-108.54497	937.51770	-561.79126	-20.37260	517.74512	-619.12715	45.12508	458.12608	-867.06091	41.61445	168.74977	-852.30546	-41.20599	158.33511	-926.29849	1.38847	178.52966	-816.89973	19.08693	134.85682	-661.53113	-119.06154	506.65960	-727.91173	-182.20444	436.93738	-858.98234	-166.82784	75.84664	-843.04233	-84.54864	75.98241	-915.68913	-132.52908	64.87917	-801.57477	-149.73914	66.89382	-653.28091	116.01256	612.78362	-741.44817	108.40647	337.24451	-743.51520	-259.51138	607.11690	-795.74120	-244.70465	296.98140	
101	1.000	-798.26866	-70.92995	1310.68230	-821.47208	-56.96265	1094.98174	-658.12960	-59.28928	1269.02843	-696.23469	25.79045	898.76077	-701.61075	-163.10357	909.62374	-838.78229	-22.04714	938.44685	-845.71862	-108.13047	941.29171	-548.60337	-19.91675	524.24628	-604.55456	45.98575	464.08050	-836.38976	39.75086	159.50936	-820.49155	-42.91159	150.58322	-895.85747	-0.84453	166.06476	-784.09420	17.58786	128.80802	-659.87810	-118.51702	507.24023	-727.33945	-182.02343	438.96028	-858.57788	-167.28907	77.44106	-842.52591	-85.03482	77.59083	-915.20605	-132.92907	66.84451	-801.11255	-150.19557	67.80928	-637.97052	116.36578	619.26149	-721.51681	108.03286	334.81838	-739.48449	-259.07764	609.49494	-796.14897	-244.80247	299.29061	
102	1.010	-786.44685	-71.33340	1313.95308	-810.06719	-57.14515	1098.42946	-646.55357	-59.27081	1272.35381	-685.07663	25.82942	902.44689	-691.15312	-163.13408	912.38267	-827.54347	-21.50948	942.13608	-834.76759	-107.57336	944.82869	-536.19838	-19.36550	530.03591	-590.82818	46.92512	469.40044	-804.93215	38.27173	150.19838	-788.07315	-44.25997	142.80106	-864.46513	-2.64390	153.44248	-750.70484	16.41796	122.83196	-658.07641	-118.09036	507.88385	-726.56437	-181.89524	441.03920	-858.10570	-167.75891	79.15502	-841.94298	-85.53101	79.29283	-914.65006	-133.33651	68.95883	-800.59994	-150.65443	68.77741	-623.37303	116.74280	625.12008	-701.71034	107.86654	331.95144	-735.33719	-258.67027	611.87754	-796.37856	-244.90443	301.69232	
103	1.020	-774.52785	-71.66625	1316.97272	-798.66261	-57.19084	1101.63244	-634.91266	-59.26996	1275.31925	-673.91002	25.93056	905.80213	-680.77795	-163.11425	914.91808	-816.32768	-20.83724	945.49339	-823.87879	-106.86852	948.06149	-524.54378	-18.73692	535.02859	-577.91751	47.90721	473.96584	-772.70520	37.20922	141.03411	-755.12605	-45.23211	135.16796	-832.14584	-3.93854	140.89682	-716.78505	15.57455	117.11634	-656.07054	-117.79694	508.53923	-725.54226	-181.82379	443.11730	-857.56595	-168.22852	80.95923	-841.29208	-86.02652	81.05972	-914.02174	-133.74378	71.19126	-800.04116	-151.10674	69.78127	-609.65531	117.16405	630.16875	-681.97440	107.91293	328.76023	-731.03697	-258.29904	614.21199	-796.38993	-245.00802	304.13155	
104	1.030	-762.51009	-71.92785	1319.67603	-787.24704	-57.09537	1104.52370	-623.20262	-59.28378	1277.85808	-662.72508	26.09330	908.75104	-670.47142	-163.04344	917.17961	-805.12837	-20.02818	948.45028	-813.04178	-106.01388	950.93205	-513.60054	-18.05801	539.16458	-565.77190	48.89809	477.68561	-739.75876	36.57978	132.21793	-721.75615	-45.82224	127.85187	-798.96248	-4.66869	128.64947	-682.41439	15.03595	111.83223	-653.82189	-117.64170	509.15590	-724.24785	-181.80635	445.14078	-856.96371	-168.68724	82.82013	-840.57633	-86.50880	82.85920	-913.32643	-134.14081	73.50491	-799.44380	-151.54191	70.80143	-596.94502	117.65583	634.25044	-662.23968	108.17678	325.34910	-726.56270	-257.96760	616.44760	-796.15903	-245.10826	306.55451	
105	1.040	-750.39247	-72.11605	1322.00713	-775.80830	-56.85795	1107.04554	-611.41903	-59.30686	1279.91593	-651.51191	26.31612	911.23136	-660.21747	-162.92134	919.12315	-793.93791	-19.08305	950.95145	-802.24415	-105.01079	953.39242	-503.32130	-17.36400	542.41022	-554.31955	49.86778	480.50066	-706.18296	36.38109	123.92836	-688.10120	-46.03962	121.00182	-765.02227	-4.79510	116.90291	-647.70418	14.76357	107.12616	-651.30843	-117.61927	509.68586	-722.67281	-181.83407	447.06052	-856.30864	-169.12287	84.70183	-839.80372	-86.96420	84.65699	-912.57407	-134.51561	75.85909	-798.81843	-151.94844	71.81727	-585.31518	118.24640	637.25164	-642.43008	108.66003	321.80834	-721.90675	-257.67354	618.53739	-795.67634	-245.19816	308.91040	
106	1.050	-738.17399	-72.22746	1323.92081	-764.33366	-56.48174	1109.15092	-599.55695	-59.33158	1281.45165	-640.26064	26.59683	913.19544	-649.99772	-162.74786	920.71146	-782.74756	-18.00592	952.95581	-791.47150	-103.86425	955.40548	-493.64801	-16.69568	544.75787	-543.46801	50.79209	482.38568	-672.11404	36.59056	116.31425	-654.33069	-45.90903	114.74086	-730.48107	-4.30652	105.83411	-612.80160	14.70562	103.11231	-648.52311	-117.71496	510.08505	-720.82280	-181.89318	448.83349	-855.61419	-169.52248	86.56816	-838.98673	-87.37894	86.41862	-911.77851	-134.85519	78.21174	-798.17779	-152.31489	72.80847	-574.77327	118.96177	639.10968	-622.47511	109.35944	318.21501	-717.07238	-257.40907	620.43952	-794.94444	-245.26942	311.15303	
107	1.060	-725.85355	-72.25772	1325.38359	-752.81018	-55.97393	1110.80452	-587.61086	-59.34845	1282.43786	-628.96158	26.93279	914.61141	-639.79152	-162.52304	921.91472	-771.54756	-16.80433	954.43708	-780.70750	-102.58307	956.94545	-484.50933	-16.09515	546.22539	-533.10636	51.65396	483.34951	-637.73764	37.16568	109.48874	-620.64393	-45.47013	109.16017	-695.54557	-3.22451	95.58907	-577.89174	14.80209	99.86514	-645.47127	-117.90645	510.31452	-718.71356	-181.96645	450.42367	-854.89641	-169.87342	88.38476	-838.14149	-87.74022	88.11141	-910.95655	-135.14683	80.52207	-797.53581	-152.63090	73.75637	-565.25574	119.82180	639.81659	-602.32458	110.26411	314.63483	-712.07047	-257.16207	622.11838	-793.97499	-245.31330	313.24220	
108	1.070	-713.42976	-72.20182	1326.37445	-741.22509	-55.34565	1111.98351	-575.57454	-59.34638	1282.86117	-617.60551	27.32128	915.46370	-629.57603	-162.24693	922.71093	-760.32733	-15.48937	955.38396	-769.93414	-101.17979	957.99801	-475.81821	-15.60054	546.85538	-523.10872	52.44414	483.43405	-603.28896	38.04625	103.52428	-587.26628	-44.77546	104.31472	-660.47269	-1.60514	86.27863	-543.19700	14.99039	97.41350	-642.16710	-118.16598	510.34129	-716.36660	-182.03497	451.80256	-854.17263	-170.16460	90.12115	-837.28655	-88.03737	89.70631	-910.12679	-135.37954	82.75311	-796.90650	-152.88818	74.64515	-556.62877	120.83708	639.41910	-581.96293	111.35343	311.12379	-706.91580	-256.91754	623.54541	-792.78529	-245.32148	315.14488	
109	1.080	-700.90086	-72.05437	1326.88518	-729.56623	-54.61170	1112.67789	-563.44122	-59.31297	1282.72202	-606.18393	27.75977	915.75318	-619.32650	-161.91945	923.08623	-749.07567	-14.07556	955.79995	-759.13195	-99.67058	958.56026	-467.47022	-15.24059	546.71385	-513.33905	53.16107	482.71174	-569.04921	39.15823	98.44959	-554.44379	-43.88742	100.22105	-625.56588	0.46280	77.97583	-508.97372	15.21109	95.73703	-638.62963	-118.46264	510.13879	-713.80464	-182.07981	452.94927	-853.45996	-170.38773	91.75248	-836.44138	-88.26280	91.17977	-909.30827	-135.54547	84.87415	-796.30284	-153.08150	75.46277	-548.69538	122.00712	638.01490	-561.42044	112.59588	307.72868	-701.62305	-256.65904	624.69941	-791.39473	-245.28686	316.83627	
110	1.090	-688.26483	-71.80997	1326.92040	-717.82242	-53.78996	1112.89057	-551.20382	-59.23484	1282.03431	-594.68930	28.24627	915.49672	-609.01656	-161.54021	923.03512	-737.78107	-12.58063	955.70265	-748.28042	-98.07493	958.64041	-459.34321	-15.03017	545.88853	-503.65681	53.80983	481.28174	-535.33820	40.41877	94.24909	-522.43633	-42.87452	96.85760	-591.16796	2.86287	70.71523	-475.50578	15.41298	94.76595	-634.87837	-118.76457	509.68705	-711.04722	-182.08343	453.85033	-852.77386	-170.53847	93.26119	-835.62464	-88.41286	92.51521	-908.51916	-135.64110	86.86289	-795.73566	-153.20938	76.20169	-541.20861	123.31974	635.74531	-540.77872	113.94908	304.48640	-696.20278	-256.37013	625.56656	-789.82146	-245.20412	318.30065	
111	1.100	-675.51956	-71.46343	1326.49712	-705.98384	-52.90083	1112.63705	-538.85534	-59.09798	1280.82468	-583.11533	28.77950	914.72632	-598.61870	-161.10841	922.56060	-726.43208	-11.02520	955.12292	-737.35848	-96.41525	958.25727	-451.29871	-14.96750	544.48647	-493.92287	54.40019	479.26491	-502.50312	41.74207	90.86531	-491.50963	-41.80715	94.16762	-557.65031	5.45891	64.49431	-443.09533	15.55694	94.38466	-630.92901	-119.04090	508.97272	-708.10672	-182.03076	454.49917	-852.12671	-170.61715	94.63836	-834.85234	-88.48828	93.70440	-907.77515	-135.66777	88.70740	-795.21272	-153.27454	76.85929	-533.88960	124.75167	632.78503	-520.16890	115.36148	301.42267	-690.65777	-256.03552	626.14006	-788.07937	-245.06999	319.53216	
